<svg width="70" height="30" viewBox="0 0 70 30" fill="none" xmlns="http://www.w3.org/2000/svg">
<rect width="70" height="30" rx="15" fill="#9DC130"/>
<path fill-rule="evenodd" clip-rule="evenodd" d="M19.3547 6.31985C19.5923 5.98058 20.0599 5.89813 20.3992 6.13568C20.7384 6.37324 20.8209 6.84085 20.5833 7.18011L19.3678 8.916C20.1573 9.16824 20.6952 9.44031 20.6952 9.44031C20.6952 9.44031 19.3805 11.7018 17.1506 11.7018C14.9206 11.7018 13.3361 9.59402 13.3361 9.59402C13.3361 9.59402 13.8979 9.23547 14.7308 8.92794L13.4073 7.35069C13.1411 7.03342 13.1825 6.56041 13.4998 6.29418C13.817 6.02796 14.29 6.06935 14.5563 6.38662L16.2491 8.40411C16.2828 8.44418 16.3115 8.48673 16.3353 8.53103C16.5344 8.50786 16.7374 8.49486 16.9423 8.49486C17.2296 8.49486 17.5167 8.51686 17.7968 8.55416C17.8109 8.52791 17.8266 8.50221 17.8441 8.47721L19.3547 6.31985ZM13.7956 11.8089C13.2005 11.3839 12.3001 10.2746 12.3001 10.2746C12.3001 10.2746 10 12.0973 10 15.962C10 19.8268 13.9764 22.1528 13.9764 22.1528C13.9764 22.1528 15.8763 20.2341 16.3427 17.8019C16.8091 15.3697 15.6528 12.6691 15.6528 12.6691C15.6528 12.6691 14.3907 12.2339 13.7956 11.8089ZM20.2044 11.8089C20.7995 11.3839 21.6999 10.2746 21.6999 10.2746C21.6999 10.2746 24 12.0973 24 15.962C24 19.8268 20.0236 22.1528 20.0236 22.1528C20.0236 22.1528 18.1237 20.2341 17.6573 17.8019C17.1909 15.3697 18.3472 12.6691 18.3472 12.6691C18.3472 12.6691 19.6093 12.2339 20.2044 11.8089Z" fill="white"/>
<path d="M41.8262 16.804C41.8262 17.284 41.7022 17.688 41.4542 18.016C41.2062 18.336 40.8702 18.58 40.4462 18.748C40.0302 18.916 39.5742 19 39.0782 19H34.9622V10.48H39.5222C39.9222 10.48 40.2662 10.588 40.5542 10.804C40.8422 11.012 41.0662 11.284 41.2262 11.62C41.3862 11.956 41.4662 12.3 41.4662 12.652C41.4662 13.068 41.3622 13.46 41.1542 13.828C40.9462 14.188 40.6422 14.456 40.2422 14.632C40.7302 14.776 41.1142 15.036 41.3942 15.412C41.6822 15.788 41.8262 16.252 41.8262 16.804ZM36.6182 11.896V14.044H38.8262C39.0982 14.044 39.3342 13.948 39.5342 13.756C39.7342 13.564 39.8342 13.3 39.8342 12.964C39.8342 12.644 39.7422 12.388 39.5582 12.196C39.3822 11.996 39.1622 11.896 38.8982 11.896H36.6182ZM40.1582 16.492C40.1582 16.18 40.0622 15.912 39.8702 15.688C39.6782 15.464 39.4422 15.352 39.1622 15.352H36.6182V17.596H39.0782C39.3822 17.596 39.6382 17.488 39.8462 17.272C40.0542 17.056 40.1582 16.796 40.1582 16.492ZM46.7305 19.06C46.0505 19.06 45.4705 18.948 44.9905 18.724C44.5185 18.492 44.1345 18.176 43.8385 17.776C43.5505 17.376 43.3385 16.924 43.2025 16.42C43.0665 15.908 42.9985 15.376 42.9985 14.824V10.48H44.6545V14.824C44.6545 15.296 44.7185 15.744 44.8465 16.168C44.9745 16.592 45.1905 16.936 45.4945 17.2C45.7985 17.464 46.2065 17.596 46.7185 17.596C47.2465 17.596 47.6625 17.464 47.9665 17.2C48.2705 16.928 48.4865 16.58 48.6145 16.156C48.7425 15.732 48.8065 15.288 48.8065 14.824V10.48H50.4505V14.824C50.4505 15.408 50.3785 15.956 50.2345 16.468C50.0985 16.98 49.8785 17.432 49.5745 17.824C49.2785 18.208 48.8945 18.512 48.4225 18.736C47.9505 18.952 47.3865 19.06 46.7305 19.06ZM55.6585 19.06C55.0985 19.06 54.5745 18.948 54.0865 18.724C53.5985 18.5 53.1665 18.192 52.7905 17.8C52.4225 17.4 52.1345 16.936 51.9265 16.408C51.7185 15.88 51.6145 15.308 51.6145 14.692C51.6145 14.108 51.7185 13.56 51.9265 13.048C52.1345 12.528 52.4265 12.072 52.8025 11.68C53.1785 11.288 53.6185 10.98 54.1225 10.756C54.6265 10.532 55.1745 10.42 55.7665 10.42C56.5585 10.42 57.2425 10.592 57.8185 10.936C58.3945 11.272 58.8265 11.72 59.1145 12.28L57.8785 13.192C57.6625 12.776 57.3585 12.456 56.9665 12.232C56.5825 12 56.1625 11.884 55.7065 11.884C55.2265 11.884 54.8025 12.016 54.4345 12.28C54.0745 12.544 53.7905 12.892 53.5825 13.324C53.3825 13.756 53.2825 14.228 53.2825 14.74C53.2825 15.276 53.3905 15.76 53.6065 16.192C53.8225 16.624 54.1185 16.968 54.4945 17.224C54.8785 17.472 55.3145 17.596 55.8025 17.596C56.6265 17.596 57.3705 17.208 58.0345 16.432V15.832H56.3185V14.62H59.4025V19H58.0345V18.04C57.3465 18.72 56.5545 19.06 55.6585 19.06Z" fill="white"/>
</svg>
