<svg width="77" height="30" viewBox="0 0 77 30" fill="none" xmlns="http://www.w3.org/2000/svg">
<rect width="77" height="30" rx="15" fill="#5F606D"/>
<path d="M35.222 19V10.48H38.318C39.246 10.48 40.022 10.672 40.646 11.056C41.27 11.432 41.738 11.944 42.05 12.592C42.362 13.232 42.518 13.944 42.518 14.728C42.518 15.592 42.346 16.344 42.002 16.984C41.658 17.624 41.17 18.12 40.538 18.472C39.906 18.824 39.166 19 38.318 19H35.222ZM40.85 14.728C40.85 14.176 40.75 13.692 40.55 13.276C40.35 12.852 40.062 12.524 39.686 12.292C39.31 12.052 38.854 11.932 38.318 11.932H36.878V17.548H38.318C38.862 17.548 39.322 17.428 39.698 17.188C40.074 16.94 40.358 16.604 40.55 16.18C40.75 15.748 40.85 15.264 40.85 14.728ZM45.7997 10.48H47.4797L50.6117 19H48.9077L48.1157 16.876H45.1397L44.3597 19H42.6557L45.7997 10.48ZM47.8157 15.712L46.6397 12.196L45.4157 15.712H47.8157ZM51.5462 19V10.48H55.3142C55.7062 10.48 56.0662 10.56 56.3942 10.72C56.7302 10.88 57.0182 11.096 57.2582 11.368C57.5062 11.64 57.6942 11.944 57.8222 12.28C57.9582 12.616 58.0262 12.96 58.0262 13.312C58.0262 13.856 57.8862 14.356 57.6062 14.812C57.3342 15.268 56.9622 15.596 56.4902 15.796L58.4342 19H56.6102L54.8582 16.144H53.2022V19H51.5462ZM53.2022 14.692H55.2782C55.5902 14.692 55.8462 14.56 56.0462 14.296C56.2542 14.024 56.3582 13.696 56.3582 13.312C56.3582 13.048 56.3022 12.812 56.1902 12.604C56.0782 12.396 55.9342 12.232 55.7582 12.112C55.5902 11.992 55.4062 11.932 55.2062 11.932H53.2022V14.692ZM59.5267 19V10.492H61.1827V14.536L64.7587 10.48H66.5827L63.3187 14.26L66.7867 19H64.9147L62.2627 15.328L61.1827 16.456V19H59.5267Z" fill="white"/>
<path fill-rule="evenodd" clip-rule="evenodd" d="M22.2172 15C22.2172 18.866 19.0831 22 15.2172 22C14.0573 22 12.9632 21.7179 12 21.2185C12.9087 21.1825 13.7598 20.8826 14.4986 20.3826C14.7646 20.4233 15.037 20.4444 15.3144 20.4444C18.2676 20.4444 20.6616 18.0504 20.6616 15.0972C20.6616 12.144 18.2676 9.75 15.3144 9.75C15.1162 9.75 14.9206 9.76078 14.7281 9.78178C13.9383 9.18346 13.0043 8.82132 12 8.78146C12.9632 8.28211 14.0573 8 15.2172 8C19.0831 8 22.2172 11.134 22.2172 15Z" fill="white"/>
</svg>
