<svg width="96" height="30" viewBox="0 0 96 30" fill="none" xmlns="http://www.w3.org/2000/svg">
<rect width="96" height="30" rx="15" fill="#0773C7"/>
<path fill-rule="evenodd" clip-rule="evenodd" d="M17.7719 14.965C17.8804 14.8989 17.9724 14.7603 18.0466 14.6063C19.023 15.0054 19.7091 15.9484 19.7091 17.0481C19.7091 18.5091 18.4982 19.6934 17.0045 19.6934C16.3913 19.6934 15.8257 19.4938 15.3721 19.1575C15.2233 19.087 15.1008 19.0193 15.0006 18.9639C14.8452 18.878 14.7433 18.8217 14.6795 18.8305C14.493 18.8562 14.5471 19.0278 14.5963 19.1837C14.6298 19.2896 14.6609 19.3883 14.6127 19.429C14.5623 19.4716 14.3989 19.3158 14.208 19.1338C13.9481 18.886 13.6372 18.5896 13.4906 18.6787C13.3747 18.7491 13.4873 18.94 13.625 19.1738L13.6352 19.1911C13.6934 19.29 13.7609 19.3905 13.8224 19.4824C13.9475 19.669 14.0482 19.8193 13.9978 19.8448C13.9369 19.8755 13.5123 19.589 13.1545 19.1911C13.0164 19.0376 12.8827 18.8711 12.7584 18.7165C12.4863 18.3779 12.2596 18.0959 12.1324 18.1293C11.9793 18.1695 12.0951 18.4852 12.2652 18.7891C12.3448 18.9312 12.4384 19.0759 12.5194 19.2011C12.6455 19.396 12.7411 19.5438 12.7064 19.562C12.6596 19.5865 12.2477 19.1848 11.9679 18.6787C11.8018 18.378 11.6622 18.0458 11.5493 17.7768C11.4268 17.4851 11.3355 17.2678 11.2754 17.2459C11.0667 17.1699 11.0667 17.5956 11.1504 18.21C11.1613 18.2901 11.1776 18.3741 11.1976 18.4597C12.0096 21.087 14.504 23 17.4552 23C21.0651 23 23.9915 20.1379 23.9915 16.6072C23.9915 13.2469 21.3406 10.4921 17.9725 10.2342C17.9768 10.0759 18.0594 9.76197 18.0594 9.76197C18.0594 9.76197 18.654 8.32335 18.6854 8.01594C18.6875 7.99553 18.69 7.97336 18.6926 7.94975C18.7296 7.61759 18.7985 7 18.2672 7C17.9835 7 17.8515 7.21108 17.7006 7.4525C17.6427 7.54518 17.5819 7.64233 17.5088 7.73372C16.9816 8.39199 16.0952 9.21403 15.5927 9.65197C14.5303 10.5776 13.4881 11.3384 12.8802 11.7821L12.8802 11.7821L12.8802 11.7821C12.6037 11.9839 12.4171 12.1201 12.3594 12.1764C11.9242 12.6006 10.3638 15.4152 10.3638 15.4152C10.3638 15.4152 9.8592 16.3182 10.0386 16.5013C10.2179 16.6845 10.6504 16.6425 10.6504 16.6425C10.6504 16.6425 16.4611 15.3095 16.9813 15.2043C17.1214 15.176 17.2202 15.1597 17.2962 15.1472C17.5023 15.1131 17.5392 15.107 17.7719 14.965ZM13.6636 13.252C13.3517 13.5485 12.8344 14.2561 12.8344 14.2561C12.8344 14.2561 13.7958 14.3154 14.3253 13.8121C14.8548 13.3088 14.7334 12.451 14.7334 12.451C14.7334 12.451 13.9755 12.9555 13.6636 13.252Z" fill="white"/>
<path d="M35.888 19V10.48H38.984C39.912 10.48 40.688 10.672 41.312 11.056C41.936 11.432 42.404 11.944 42.716 12.592C43.028 13.232 43.184 13.944 43.184 14.728C43.184 15.592 43.012 16.344 42.668 16.984C42.324 17.624 41.836 18.12 41.204 18.472C40.572 18.824 39.832 19 38.984 19H35.888ZM41.516 14.728C41.516 14.176 41.416 13.692 41.216 13.276C41.016 12.852 40.728 12.524 40.352 12.292C39.976 12.052 39.52 11.932 38.984 11.932H37.544V17.548H38.984C39.528 17.548 39.988 17.428 40.364 17.188C40.74 16.94 41.024 16.604 41.216 16.18C41.416 15.748 41.516 15.264 41.516 14.728ZM44.4778 19V10.48H48.2458C48.6378 10.48 48.9978 10.56 49.3258 10.72C49.6618 10.88 49.9498 11.096 50.1898 11.368C50.4378 11.64 50.6258 11.944 50.7538 12.28C50.8898 12.616 50.9578 12.96 50.9578 13.312C50.9578 13.856 50.8178 14.356 50.5378 14.812C50.2658 15.268 49.8938 15.596 49.4218 15.796L51.3658 19H49.5418L47.7898 16.144H46.1338V19H44.4778ZM46.1338 14.692H48.2098C48.5218 14.692 48.7778 14.56 48.9778 14.296C49.1858 14.024 49.2898 13.696 49.2898 13.312C49.2898 13.048 49.2338 12.812 49.1218 12.604C49.0098 12.396 48.8658 12.232 48.6898 12.112C48.5218 11.992 48.3378 11.932 48.1378 11.932H46.1338V14.692ZM54.7743 10.48H56.4543L59.5863 19H57.8823L57.0903 16.876H54.1143L53.3343 19H51.6303L54.7743 10.48ZM56.7903 15.712L55.6143 12.196L54.3903 15.712H56.7903ZM63.7327 19.06C63.1727 19.06 62.6487 18.948 62.1607 18.724C61.6727 18.5 61.2407 18.192 60.8647 17.8C60.4967 17.4 60.2087 16.936 60.0007 16.408C59.7927 15.88 59.6887 15.308 59.6887 14.692C59.6887 14.108 59.7927 13.56 60.0007 13.048C60.2087 12.528 60.5007 12.072 60.8767 11.68C61.2527 11.288 61.6927 10.98 62.1967 10.756C62.7007 10.532 63.2487 10.42 63.8407 10.42C64.6327 10.42 65.3167 10.592 65.8927 10.936C66.4687 11.272 66.9007 11.72 67.1887 12.28L65.9527 13.192C65.7367 12.776 65.4327 12.456 65.0407 12.232C64.6567 12 64.2367 11.884 63.7807 11.884C63.3007 11.884 62.8767 12.016 62.5087 12.28C62.1487 12.544 61.8647 12.892 61.6567 13.324C61.4567 13.756 61.3567 14.228 61.3567 14.74C61.3567 15.276 61.4647 15.76 61.6807 16.192C61.8967 16.624 62.1927 16.968 62.5687 17.224C62.9527 17.472 63.3887 17.596 63.8767 17.596C64.7007 17.596 65.4447 17.208 66.1087 16.432V15.832H64.3927V14.62H67.4767V19H66.1087V18.04C65.4207 18.72 64.6287 19.06 63.7327 19.06ZM72.524 19.06C71.9 19.06 71.332 18.94 70.82 18.7C70.316 18.46 69.88 18.136 69.512 17.728C69.152 17.312 68.872 16.848 68.672 16.336C68.472 15.816 68.372 15.284 68.372 14.74C68.372 14.172 68.476 13.632 68.684 13.12C68.892 12.6 69.184 12.14 69.56 11.74C69.936 11.332 70.376 11.012 70.88 10.78C71.392 10.54 71.952 10.42 72.56 10.42C73.176 10.42 73.736 10.544 74.24 10.792C74.752 11.04 75.188 11.372 75.548 11.788C75.916 12.204 76.196 12.672 76.388 13.192C76.588 13.704 76.688 14.228 76.688 14.764C76.688 15.324 76.584 15.864 76.376 16.384C76.168 16.896 75.876 17.356 75.5 17.764C75.132 18.164 74.692 18.48 74.18 18.712C73.676 18.944 73.124 19.06 72.524 19.06ZM70.052 14.74C70.052 15.236 70.148 15.7 70.34 16.132C70.54 16.564 70.824 16.916 71.192 17.188C71.568 17.46 72.016 17.596 72.536 17.596C73.072 17.596 73.524 17.456 73.892 17.176C74.26 16.896 74.54 16.536 74.732 16.096C74.924 15.656 75.02 15.204 75.02 14.74C75.02 14.244 74.92 13.78 74.72 13.348C74.52 12.916 74.232 12.568 73.856 12.304C73.488 12.032 73.048 11.896 72.536 11.896C72 11.896 71.548 12.036 71.18 12.316C70.812 12.596 70.532 12.956 70.34 13.396C70.148 13.828 70.052 14.276 70.052 14.74ZM79.6143 13.528V19H77.9583V10.48H79.2783L83.6823 16.096V10.492H85.3383V19H83.9583L79.6143 13.528Z" fill="white"/>
</svg>
