<svg width="102" height="30" viewBox="0 0 102 30" fill="none" xmlns="http://www.w3.org/2000/svg">
<rect width="102" height="30" rx="15" fill="#EDD53F"/>
<path d="M41.804 17.548V19H35.888V10.48H41.696V11.932H37.544V13.984H41.132V15.328H37.544V17.548H41.804ZM43.095 19V10.48H44.751V17.548H49.095V19H43.095ZM56.0188 17.548V19H50.1028V10.48H55.9108V11.932H51.7588V13.984H55.3468V15.328H51.7588V17.548H56.0188ZM56.6415 14.68C56.6415 14.16 56.7335 13.648 56.9175 13.144C57.1095 12.64 57.3855 12.184 57.7455 11.776C58.1055 11.368 58.5455 11.044 59.0655 10.804C59.5855 10.556 60.1775 10.432 60.8415 10.432C61.6175 10.432 62.2935 10.604 62.8695 10.948C63.4455 11.292 63.8735 11.74 64.1535 12.292L62.8815 13.168C62.7375 12.848 62.5495 12.596 62.3175 12.412C62.0855 12.228 61.8335 12.096 61.5615 12.016C61.2975 11.936 61.0415 11.896 60.7935 11.896C60.3775 11.896 60.0135 11.98 59.7015 12.148C59.3975 12.316 59.1415 12.536 58.9335 12.808C58.7255 13.08 58.5695 13.384 58.4655 13.72C58.3695 14.056 58.3215 14.392 58.3215 14.728C58.3215 15.232 58.4255 15.704 58.6335 16.144C58.8415 16.576 59.1335 16.928 59.5095 17.2C59.8855 17.472 60.3215 17.608 60.8175 17.608C61.0735 17.608 61.3375 17.564 61.6095 17.476C61.8895 17.388 62.1455 17.248 62.3775 17.056C62.6095 16.864 62.7895 16.616 62.9175 16.312L64.2735 17.092C64.0975 17.516 63.8215 17.876 63.4455 18.172C63.0695 18.46 62.6455 18.684 62.1735 18.844C61.7015 18.996 61.2335 19.072 60.7695 19.072C60.1615 19.072 59.6055 18.948 59.1015 18.7C58.6055 18.444 58.1735 18.108 57.8055 17.692C57.4375 17.268 57.1495 16.796 56.9415 16.276C56.7415 15.748 56.6415 15.216 56.6415 14.68ZM71.7561 11.932H69.0321V19H67.3881V11.932H64.6641V10.48H71.7561V11.932ZM72.8138 19V10.48H76.5818C76.9738 10.48 77.3338 10.56 77.6618 10.72C77.9978 10.88 78.2858 11.096 78.5258 11.368C78.7738 11.64 78.9618 11.944 79.0898 12.28C79.2258 12.616 79.2938 12.96 79.2938 13.312C79.2938 13.856 79.1538 14.356 78.8738 14.812C78.6018 15.268 78.2298 15.596 77.7578 15.796L79.7018 19H77.8778L76.1258 16.144H74.4698V19H72.8138ZM74.4698 14.692H76.5458C76.8578 14.692 77.1138 14.56 77.3138 14.296C77.5218 14.024 77.6258 13.696 77.6258 13.312C77.6258 13.048 77.5698 12.812 77.4578 12.604C77.3458 12.396 77.2018 12.232 77.0258 12.112C76.8578 11.992 76.6738 11.932 76.4738 11.932H74.4698V14.692ZM80.7943 19V10.48H82.4503V19H80.7943ZM83.7118 14.68C83.7118 14.16 83.8038 13.648 83.9878 13.144C84.1798 12.64 84.4558 12.184 84.8158 11.776C85.1758 11.368 85.6158 11.044 86.1358 10.804C86.6558 10.556 87.2478 10.432 87.9118 10.432C88.6878 10.432 89.3638 10.604 89.9398 10.948C90.5158 11.292 90.9438 11.74 91.2238 12.292L89.9518 13.168C89.8078 12.848 89.6198 12.596 89.3878 12.412C89.1558 12.228 88.9038 12.096 88.6318 12.016C88.3678 11.936 88.1118 11.896 87.8638 11.896C87.4478 11.896 87.0838 11.98 86.7718 12.148C86.4678 12.316 86.2118 12.536 86.0038 12.808C85.7958 13.08 85.6398 13.384 85.5358 13.72C85.4398 14.056 85.3918 14.392 85.3918 14.728C85.3918 15.232 85.4958 15.704 85.7038 16.144C85.9118 16.576 86.2038 16.928 86.5798 17.2C86.9558 17.472 87.3918 17.608 87.8878 17.608C88.1438 17.608 88.4078 17.564 88.6798 17.476C88.9598 17.388 89.2158 17.248 89.4478 17.056C89.6798 16.864 89.8598 16.616 89.9878 16.312L91.3438 17.092C91.1678 17.516 90.8918 17.876 90.5158 18.172C90.1398 18.46 89.7158 18.684 89.2438 18.844C88.7718 18.996 88.3038 19.072 87.8398 19.072C87.2318 19.072 86.6758 18.948 86.1718 18.7C85.6758 18.444 85.2438 18.108 84.8758 17.692C84.5078 17.268 84.2198 16.796 84.0118 16.276C83.8118 15.748 83.7118 15.216 83.7118 14.68Z" fill="white"/>
<path fill-rule="evenodd" clip-rule="evenodd" d="M13.9632 9.58366C13.8643 9.29796 14.0765 9 14.3788 9H19.086C19.2788 9 19.4492 9.12559 19.5062 9.30978L21.8236 16.797C21.9112 17.08 21.6997 17.3669 21.4034 17.3669H18.5221C18.3762 17.3669 18.2707 17.5065 18.3106 17.6469L19.7536 22.7265C19.8867 23.1953 19.2718 23.5005 18.9789 23.111L12.5295 14.5343C12.3115 14.2444 12.5184 13.8301 12.881 13.8301H15.1238C15.275 13.8301 15.3811 13.6811 15.3316 13.5383L13.9632 9.58366Z" fill="white"/>
</svg>
