<svg width="79" height="30" viewBox="0 0 79 30" fill="none" xmlns="http://www.w3.org/2000/svg">
<rect width="79" height="30" rx="15" fill="#EF97E6"/>
<path fill-rule="evenodd" clip-rule="evenodd" d="M13.2701 18.9238L15.3448 18.3223L17.2871 21.8737C17.3791 22.042 17.6208 22.042 17.7128 21.8737L19.6551 18.3223L21.7298 18.9238C21.914 18.9772 22.0844 18.8059 22.03 18.622L21.4306 16.5959L24.8737 14.7128C25.042 14.6208 25.042 14.3791 24.8737 14.2871L21.3991 12.3868L22.03 10.2542C22.0844 10.0704 21.914 9.89902 21.7298 9.95242L19.5968 10.5709L17.7128 7.12619C17.6208 6.95794 17.3791 6.95794 17.2871 7.12619L15.4031 10.5709L13.2701 9.95242C13.0859 9.89902 12.9155 10.0704 12.9699 10.2542L13.6008 12.3868L10.1262 14.2871C9.95794 14.3791 9.95794 14.6208 10.1262 14.7128L13.5693 16.5959L12.9699 18.622C12.9155 18.8059 13.0859 18.9772 13.2701 18.9238ZM15.1649 14.7332L16.55 15.4907L17.3075 16.8758C17.3995 17.044 17.6412 17.044 17.7332 16.8758L18.4907 15.4907L19.8758 14.7332C20.044 14.6412 20.044 14.3995 19.8758 14.3075L18.4907 13.55L17.7332 12.1649C17.6412 11.9966 17.3995 11.9966 17.3075 12.1649L16.55 13.55L15.1649 14.3075C14.9966 14.3995 14.9966 14.6412 15.1649 14.7332Z" fill="white"/>
<path d="M35.888 19V10.48H41.612V11.932H37.544V14.128H40.928V15.472H37.544V19H35.888ZM44.4853 10.48H46.1653L49.2973 19H47.5933L46.8013 16.876H43.8253L43.0452 19H41.3413L44.4853 10.48ZM46.5013 15.712L45.3253 12.196L44.1013 15.712H46.5013ZM50.2318 19V10.48H51.8878V19H50.2318ZM53.6653 19V10.48H57.4333C57.8253 10.48 58.1853 10.56 58.5133 10.72C58.8493 10.88 59.1373 11.096 59.3773 11.368C59.6253 11.64 59.8133 11.944 59.9413 12.28C60.0773 12.616 60.1453 12.96 60.1453 13.312C60.1453 13.856 60.0053 14.356 59.7253 14.812C59.4533 15.268 59.0813 15.596 58.6093 15.796L60.5533 19H58.7293L56.9773 16.144H55.3213V19H53.6653ZM55.3213 14.692H57.3973C57.7093 14.692 57.9653 14.56 58.1653 14.296C58.3733 14.024 58.4773 13.696 58.4773 13.312C58.4773 13.048 58.4213 12.812 58.3093 12.604C58.1973 12.396 58.0533 12.232 57.8773 12.112C57.7093 11.992 57.5253 11.932 57.3253 11.932H55.3213V14.692ZM62.1722 10.48L64.2722 14.488L66.4082 10.48H68.1962L65.1002 16.024V19H63.4562V16L60.3722 10.48H62.1722Z" fill="white"/>
</svg>
