<svg width="102" height="30" viewBox="0 0 102 30" fill="none" xmlns="http://www.w3.org/2000/svg">
<rect width="102" height="30" rx="15" fill="#D94256"/>
<path d="M35.888 19V10.48H41.612V11.932H37.544V14.128H40.928V15.472H37.544V19H35.888ZM42.7786 19V10.48H44.4346V19H42.7786ZM49.7522 19.06C49.1922 19.06 48.6682 18.948 48.1802 18.724C47.6922 18.5 47.2602 18.192 46.8842 17.8C46.5162 17.4 46.2282 16.936 46.0202 16.408C45.8122 15.88 45.7082 15.308 45.7082 14.692C45.7082 14.108 45.8122 13.56 46.0202 13.048C46.2282 12.528 46.5202 12.072 46.8962 11.68C47.2722 11.288 47.7122 10.98 48.2162 10.756C48.7202 10.532 49.2682 10.42 49.8602 10.42C50.6522 10.42 51.3362 10.592 51.9122 10.936C52.4882 11.272 52.9202 11.72 53.2082 12.28L51.9722 13.192C51.7562 12.776 51.4522 12.456 51.0602 12.232C50.6762 12 50.2562 11.884 49.8002 11.884C49.3202 11.884 48.8962 12.016 48.5282 12.28C48.1682 12.544 47.8842 12.892 47.6762 13.324C47.4762 13.756 47.3762 14.228 47.3762 14.74C47.3762 15.276 47.4842 15.76 47.7002 16.192C47.9162 16.624 48.2122 16.968 48.5882 17.224C48.9722 17.472 49.4082 17.596 49.8962 17.596C50.7202 17.596 51.4642 17.208 52.1282 16.432V15.832H50.4122V14.62H53.4962V19H52.1282V18.04C51.4402 18.72 50.6482 19.06 49.7522 19.06ZM62.0715 10.48V19H60.4275V15.364H56.5635V19H54.9075V10.48H56.5635V13.924H60.4275V10.48H62.0715ZM70.2209 11.932H67.4969V19H65.8529V11.932H63.1289V10.48H70.2209V11.932ZM71.2786 19V10.48H72.9346V19H71.2786ZM76.3682 13.528V19H74.7122V10.48H76.0322L80.4362 16.096V10.492H82.0922V19H80.7122L76.3682 13.528ZM87.4046 19.06C86.8446 19.06 86.3206 18.948 85.8326 18.724C85.3446 18.5 84.9126 18.192 84.5366 17.8C84.1686 17.4 83.8806 16.936 83.6726 16.408C83.4646 15.88 83.3606 15.308 83.3606 14.692C83.3606 14.108 83.4646 13.56 83.6726 13.048C83.8806 12.528 84.1726 12.072 84.5486 11.68C84.9246 11.288 85.3646 10.98 85.8686 10.756C86.3726 10.532 86.9206 10.42 87.5126 10.42C88.3046 10.42 88.9886 10.592 89.5646 10.936C90.1406 11.272 90.5726 11.72 90.8606 12.28L89.6246 13.192C89.4086 12.776 89.1046 12.456 88.7126 12.232C88.3286 12 87.9086 11.884 87.4526 11.884C86.9726 11.884 86.5486 12.016 86.1806 12.28C85.8206 12.544 85.5366 12.892 85.3286 13.324C85.1286 13.756 85.0286 14.228 85.0286 14.74C85.0286 15.276 85.1366 15.76 85.3526 16.192C85.5686 16.624 85.8646 16.968 86.2406 17.224C86.6246 17.472 87.0606 17.596 87.5486 17.596C88.3726 17.596 89.1166 17.208 89.7806 16.432V15.832H88.0646V14.62H91.1486V19H89.7806V18.04C89.0926 18.72 88.3006 19.06 87.4046 19.06Z" fill="white"/>
<path fill-rule="evenodd" clip-rule="evenodd" d="M12.0869 8.24706C12.2684 7.53032 12.9177 7 13.6909 7C14.2733 7 14.7854 7.30088 15.0802 7.75567C15.1257 7.75191 15.1717 7.75 15.2182 7.75C15.3255 7.75 15.4304 7.76022 15.5321 7.77973C15.8342 7.45391 16.266 7.25 16.7455 7.25C17.4267 7.25 18.0118 7.66177 18.2655 8.25002L18.2727 8.25C18.3904 8.25 18.5052 8.26228 18.6159 8.28563C18.8808 8.10536 19.2008 8 19.5455 8C20.2607 8 20.8699 8.4538 21.1009 9.08918C21.2263 9.1322 21.3448 9.18985 21.4545 9.2601C21.7117 9.09545 22.0174 9 22.3455 9C23.2592 9 24 9.74077 24 10.6545V15.625V15.7056C24 15.736 23.9992 15.7663 23.9975 15.7964C23.8978 19.238 20.8031 22 17 22C13.134 22 10 19.1458 10 15.625C10 13.9255 10.7302 12.3813 11.9205 11.2385C11.9175 12.8965 11.9455 14.6111 12.0745 14.5817C12.42 14.5029 12.1501 9.36866 12.0869 8.24706Z" fill="white"/>
</svg>
