<svg width="68" height="30" viewBox="0 0 68 30" fill="none" xmlns="http://www.w3.org/2000/svg">
<rect width="68" height="30" rx="15" fill="#F8A54F"/>
<path d="M32.888 19V10.48H38.612V11.932H34.544V14.128H37.928V15.472H34.544V19H32.888ZM39.7786 19V10.48H41.4346V19H39.7786ZM43.2122 19V10.48H46.9802C47.3722 10.48 47.7322 10.56 48.0602 10.72C48.3962 10.88 48.6842 11.096 48.9242 11.368C49.1722 11.64 49.3602 11.944 49.4882 12.28C49.6242 12.616 49.6922 12.96 49.6922 13.312C49.6922 13.856 49.5522 14.356 49.2722 14.812C49.0002 15.268 48.6282 15.596 48.1562 15.796L50.1002 19H48.2762L46.5242 16.144H44.8682V19H43.2122ZM44.8682 14.692H46.9442C47.2562 14.692 47.5122 14.56 47.7122 14.296C47.9202 14.024 48.0242 13.696 48.0242 13.312C48.0242 13.048 47.9682 12.812 47.8562 12.604C47.7442 12.396 47.6002 12.232 47.4242 12.112C47.2562 11.992 47.0722 11.932 46.8722 11.932H44.8682V14.692ZM57.1087 17.548V19H51.1927V10.48H57.0007V11.932H52.8487V13.984H56.4367V15.328H52.8487V17.548H57.1087Z" fill="white"/>
<path fill-rule="evenodd" clip-rule="evenodd" d="M18.4451 18.5838C18.6304 17.9062 18.2707 16.513 18.2707 16.513C18.2707 16.513 18.0097 17.6479 17.602 18.0674C17.2542 18.4252 16.8281 18.6734 16.217 18.7386C16.7166 18.4959 17.0603 17.9899 17.0603 17.4049C17.0603 16.5838 16.3831 15.9182 15.5479 15.9182C14.7126 15.9182 14.0355 16.5838 14.0355 17.4049C14.0355 17.6292 14.086 17.8418 14.1765 18.0325C13.6541 17.6163 13.5719 16.949 13.5719 16.949C13.5719 16.949 12.9886 19.371 14.5959 20.5103C16.2033 21.6496 19.3521 20.6703 19.3521 20.6703C19.3521 20.6703 14.846 23.8409 11.5069 20.3901C8.63057 17.4175 10.7562 13.504 10.7562 13.504C10.7562 13.504 10.6644 13.867 10.6644 14.2885C10.6644 14.7099 10.8929 15.0306 10.8929 15.0306C10.8929 15.0306 11.5745 13.5939 12.1049 13.0096C12.607 12.4567 13.2363 12.0082 13.7798 11.6208C14.1983 11.3226 14.5659 11.0607 14.7855 10.8151C15.9947 9.46295 15.2533 7 15.2533 7C15.2533 7 16.6164 8.20176 16.997 9.75384C17.1421 10.3455 17.0488 11.0186 16.9653 11.6206C16.8298 12.5978 16.7203 13.3874 17.699 13.3362C19.2805 13.2534 17.9062 10.8151 17.9062 10.8151C17.9062 10.8151 21.4937 12.7007 21.2257 15.9984C20.9577 19.2961 17.3044 20.0458 17.3044 20.0458C17.3044 20.0458 18.2597 19.2615 18.4451 18.5838Z" fill="white"/>
</svg>
