<svg width="87" height="30" viewBox="0 0 87 30" fill="none" xmlns="http://www.w3.org/2000/svg">
<rect width="87" height="30" rx="15" fill="#9BB4E8"/>
<path d="M35.888 19V10.48H41.612V11.932H37.544V14.128H40.928V15.472H37.544V19H35.888ZM42.7786 19V10.48H44.4346V17.548H48.7786V19H42.7786ZM49.516 10.48L51.616 14.488L53.752 10.48H55.54L52.444 16.024V19H50.8V16L47.716 10.48H49.516ZM56.4778 19V10.48H58.1338V19H56.4778ZM61.5674 13.528V19H59.9114V10.48H61.2314L65.6354 16.096V10.492H67.2914V19H65.9114L61.5674 13.528ZM72.6038 19.06C72.0438 19.06 71.5198 18.948 71.0318 18.724C70.5438 18.5 70.1118 18.192 69.7358 17.8C69.3678 17.4 69.0798 16.936 68.8718 16.408C68.6638 15.88 68.5598 15.308 68.5598 14.692C68.5598 14.108 68.6638 13.56 68.8718 13.048C69.0798 12.528 69.3718 12.072 69.7478 11.68C70.1238 11.288 70.5638 10.98 71.0678 10.756C71.5718 10.532 72.1198 10.42 72.7118 10.42C73.5038 10.42 74.1878 10.592 74.7638 10.936C75.3398 11.272 75.7718 11.72 76.0598 12.28L74.8238 13.192C74.6078 12.776 74.3038 12.456 73.9118 12.232C73.5278 12 73.1078 11.884 72.6518 11.884C72.1718 11.884 71.7478 12.016 71.3798 12.28C71.0198 12.544 70.7358 12.892 70.5278 13.324C70.3278 13.756 70.2278 14.228 70.2278 14.74C70.2278 15.276 70.3358 15.76 70.5518 16.192C70.7678 16.624 71.0638 16.968 71.4398 17.224C71.8238 17.472 72.2598 17.596 72.7478 17.596C73.5718 17.596 74.3158 17.208 74.9798 16.432V15.832H73.2638V14.62H76.3478V19H74.9798V18.04C74.2918 18.72 73.4998 19.06 72.6038 19.06Z" fill="white"/>
<ellipse cx="17.5" cy="14.5" rx="7.5" ry="6.5" fill="white"/>
</svg>
