<svg width="86" height="30" viewBox="0 0 86 30" fill="none" xmlns="http://www.w3.org/2000/svg">
<rect width="86" height="30" rx="15" fill="#6970C5"/>
<path d="M38.428 19.06C37.868 19.06 37.344 18.948 36.856 18.724C36.368 18.5 35.936 18.192 35.56 17.8C35.192 17.4 34.904 16.936 34.696 16.408C34.488 15.88 34.384 15.308 34.384 14.692C34.384 14.108 34.488 13.56 34.696 13.048C34.904 12.528 35.196 12.072 35.572 11.68C35.948 11.288 36.388 10.98 36.892 10.756C37.396 10.532 37.944 10.42 38.536 10.42C39.328 10.42 40.012 10.592 40.588 10.936C41.164 11.272 41.596 11.72 41.884 12.28L40.648 13.192C40.432 12.776 40.128 12.456 39.736 12.232C39.352 12 38.932 11.884 38.476 11.884C37.996 11.884 37.572 12.016 37.204 12.28C36.844 12.544 36.56 12.892 36.352 13.324C36.152 13.756 36.052 14.228 36.052 14.74C36.052 15.276 36.16 15.76 36.376 16.192C36.592 16.624 36.888 16.968 37.264 17.224C37.648 17.472 38.084 17.596 38.572 17.596C39.396 17.596 40.14 17.208 40.804 16.432V15.832H39.088V14.62H42.172V19H40.804V18.04C40.116 18.72 39.324 19.06 38.428 19.06ZM50.7473 10.48V19H49.1033V15.364H45.2393V19H43.5833V10.48H45.2393V13.924H49.1033V10.48H50.7473ZM56.1607 19.06C55.5367 19.06 54.9687 18.94 54.4567 18.7C53.9527 18.46 53.5167 18.136 53.1487 17.728C52.7887 17.312 52.5087 16.848 52.3087 16.336C52.1087 15.816 52.0087 15.284 52.0087 14.74C52.0087 14.172 52.1127 13.632 52.3207 13.12C52.5287 12.6 52.8207 12.14 53.1967 11.74C53.5727 11.332 54.0127 11.012 54.5167 10.78C55.0287 10.54 55.5887 10.42 56.1967 10.42C56.8127 10.42 57.3727 10.544 57.8767 10.792C58.3887 11.04 58.8247 11.372 59.1847 11.788C59.5527 12.204 59.8327 12.672 60.0247 13.192C60.2247 13.704 60.3247 14.228 60.3247 14.764C60.3247 15.324 60.2207 15.864 60.0127 16.384C59.8047 16.896 59.5127 17.356 59.1367 17.764C58.7687 18.164 58.3287 18.48 57.8167 18.712C57.3127 18.944 56.7607 19.06 56.1607 19.06ZM53.6887 14.74C53.6887 15.236 53.7847 15.7 53.9767 16.132C54.1767 16.564 54.4607 16.916 54.8287 17.188C55.2047 17.46 55.6527 17.596 56.1727 17.596C56.7087 17.596 57.1607 17.456 57.5287 17.176C57.8967 16.896 58.1767 16.536 58.3687 16.096C58.5607 15.656 58.6567 15.204 58.6567 14.74C58.6567 14.244 58.5567 13.78 58.3567 13.348C58.1567 12.916 57.8687 12.568 57.4927 12.304C57.1247 12.032 56.6847 11.896 56.1727 11.896C55.6367 11.896 55.1847 12.036 54.8167 12.316C54.4487 12.596 54.1687 12.956 53.9767 13.396C53.7847 13.828 53.6887 14.276 53.6887 14.74ZM66.6359 12.712C66.5639 12.632 66.4119 12.528 66.1799 12.4C65.9479 12.264 65.6679 12.144 65.3399 12.04C65.0199 11.928 64.6879 11.872 64.3439 11.872C63.4399 11.872 62.9879 12.192 62.9879 12.832C62.9879 13.064 63.0599 13.248 63.2039 13.384C63.3479 13.52 63.5639 13.636 63.8519 13.732C64.1399 13.828 64.4999 13.932 64.9319 14.044C65.4919 14.188 65.9759 14.356 66.3839 14.548C66.7999 14.74 67.1159 14.996 67.3319 15.316C67.5559 15.628 67.6679 16.044 67.6679 16.564C67.6679 17.172 67.5199 17.664 67.2239 18.04C66.9359 18.408 66.5519 18.676 66.0719 18.844C65.5919 19.012 65.0719 19.096 64.5119 19.096C63.8719 19.096 63.2359 19 62.6039 18.808C61.9799 18.608 61.4239 18.336 60.9359 17.992L61.6679 16.564C61.7399 16.636 61.8679 16.732 62.0519 16.852C62.2359 16.964 62.4599 17.08 62.7239 17.2C62.9879 17.312 63.2759 17.408 63.5879 17.488C63.8999 17.568 64.2159 17.608 64.5359 17.608C65.4479 17.608 65.9039 17.316 65.9039 16.732C65.9039 16.484 65.8119 16.284 65.6279 16.132C65.4439 15.98 65.1839 15.852 64.8479 15.748C64.5199 15.644 64.1359 15.528 63.6959 15.4C63.1519 15.248 62.6999 15.08 62.3399 14.896C61.9879 14.704 61.7239 14.468 61.5479 14.188C61.3719 13.9 61.2839 13.536 61.2839 13.096C61.2839 12.512 61.4199 12.024 61.6919 11.632C61.9719 11.232 62.3479 10.932 62.8199 10.732C63.2919 10.524 63.8159 10.42 64.3919 10.42C64.9839 10.42 65.5359 10.516 66.0479 10.708C66.5599 10.9 66.9999 11.12 67.3679 11.368L66.6359 12.712ZM75.2913 11.932H72.5673V19H70.9233V11.932H68.1993V10.48H75.2913V11.932Z" fill="white"/>
<path fill-rule="evenodd" clip-rule="evenodd" d="M17 22C20.866 22 24 18.866 24 15C24 11.134 20.866 8 17 8C13.134 8 10 11.134 10 15C10 18.866 13.134 22 17 22ZM14.9219 15.0721C15.5259 15.0721 16.0156 14.5924 16.0156 14.0006H15.3394C14.8188 14.0006 14.3945 13.588 14.3757 13.072C14.0484 13.2572 13.8281 13.6037 13.8281 14.0006C13.8281 14.5924 14.3178 15.0721 14.9219 15.0721ZM17.7656 14.0006C17.7656 14.5924 18.2553 15.0721 18.8594 15.0721C19.4634 15.0721 19.9531 14.5924 19.9531 14.0006C19.9531 13.6037 19.7329 13.2572 19.4056 13.072C19.3868 13.588 18.9625 14.0006 18.4419 14.0006H17.7656Z" fill="white"/>
</svg>
