<svg width="84" height="30" viewBox="0 0 84 30" fill="none" xmlns="http://www.w3.org/2000/svg">
<rect width="84" height="30" rx="15" fill="#5DBE62"/>
<path d="M39.428 19.06C38.868 19.06 38.344 18.948 37.856 18.724C37.368 18.5 36.936 18.192 36.56 17.8C36.192 17.4 35.904 16.936 35.696 16.408C35.488 15.88 35.384 15.308 35.384 14.692C35.384 14.108 35.488 13.56 35.696 13.048C35.904 12.528 36.196 12.072 36.572 11.68C36.948 11.288 37.388 10.98 37.892 10.756C38.396 10.532 38.944 10.42 39.536 10.42C40.328 10.42 41.012 10.592 41.588 10.936C42.164 11.272 42.596 11.72 42.884 12.28L41.648 13.192C41.432 12.776 41.128 12.456 40.736 12.232C40.352 12 39.932 11.884 39.476 11.884C38.996 11.884 38.572 12.016 38.204 12.28C37.844 12.544 37.56 12.892 37.352 13.324C37.152 13.756 37.052 14.228 37.052 14.74C37.052 15.276 37.16 15.76 37.376 16.192C37.592 16.624 37.888 16.968 38.264 17.224C38.648 17.472 39.084 17.596 39.572 17.596C40.396 17.596 41.14 17.208 41.804 16.432V15.832H40.088V14.62H43.172V19H41.804V18.04C41.116 18.72 40.324 19.06 39.428 19.06ZM44.5833 19V10.48H48.3513C48.7433 10.48 49.1033 10.56 49.4313 10.72C49.7673 10.88 50.0553 11.096 50.2953 11.368C50.5433 11.64 50.7313 11.944 50.8593 12.28C50.9953 12.616 51.0633 12.96 51.0633 13.312C51.0633 13.856 50.9233 14.356 50.6433 14.812C50.3713 15.268 49.9993 15.596 49.5273 15.796L51.4713 19H49.6473L47.8953 16.144H46.2393V19H44.5833ZM46.2393 14.692H48.3153C48.6273 14.692 48.8833 14.56 49.0833 14.296C49.2913 14.024 49.3953 13.696 49.3953 13.312C49.3953 13.048 49.3393 12.812 49.2273 12.604C49.1153 12.396 48.9713 12.232 48.7953 12.112C48.6273 11.992 48.4433 11.932 48.2433 11.932H46.2393V14.692ZM54.8798 10.48H56.5598L59.6918 19H57.9878L57.1958 16.876H54.2198L53.4398 19H51.7358L54.8798 10.48ZM56.8958 15.712L55.7198 12.196L54.4958 15.712H56.8958ZM65.5968 12.712C65.5248 12.632 65.3728 12.528 65.1408 12.4C64.9088 12.264 64.6288 12.144 64.3008 12.04C63.9808 11.928 63.6488 11.872 63.3048 11.872C62.4008 11.872 61.9488 12.192 61.9488 12.832C61.9488 13.064 62.0208 13.248 62.1648 13.384C62.3088 13.52 62.5248 13.636 62.8128 13.732C63.1008 13.828 63.4608 13.932 63.8928 14.044C64.4528 14.188 64.9368 14.356 65.3448 14.548C65.7608 14.74 66.0768 14.996 66.2928 15.316C66.5168 15.628 66.6288 16.044 66.6288 16.564C66.6288 17.172 66.4808 17.664 66.1848 18.04C65.8968 18.408 65.5128 18.676 65.0328 18.844C64.5528 19.012 64.0328 19.096 63.4728 19.096C62.8328 19.096 62.1968 19 61.5648 18.808C60.9408 18.608 60.3848 18.336 59.8968 17.992L60.6288 16.564C60.7008 16.636 60.8288 16.732 61.0128 16.852C61.1968 16.964 61.4208 17.08 61.6848 17.2C61.9488 17.312 62.2368 17.408 62.5488 17.488C62.8608 17.568 63.1768 17.608 63.4968 17.608C64.4088 17.608 64.8648 17.316 64.8648 16.732C64.8648 16.484 64.7728 16.284 64.5888 16.132C64.4048 15.98 64.1448 15.852 63.8088 15.748C63.4808 15.644 63.0968 15.528 62.6568 15.4C62.1128 15.248 61.6608 15.08 61.3008 14.896C60.9488 14.704 60.6848 14.468 60.5088 14.188C60.3328 13.9 60.2448 13.536 60.2448 13.096C60.2448 12.512 60.3808 12.024 60.6528 11.632C60.9328 11.232 61.3088 10.932 61.7808 10.732C62.2528 10.524 62.7768 10.42 63.3528 10.42C63.9448 10.42 64.4968 10.516 65.0088 10.708C65.5208 10.9 65.9608 11.12 66.3288 11.368L65.5968 12.712ZM72.9562 12.712C72.8842 12.632 72.7322 12.528 72.5002 12.4C72.2682 12.264 71.9882 12.144 71.6602 12.04C71.3402 11.928 71.0082 11.872 70.6642 11.872C69.7602 11.872 69.3082 12.192 69.3082 12.832C69.3082 13.064 69.3802 13.248 69.5242 13.384C69.6682 13.52 69.8842 13.636 70.1722 13.732C70.4602 13.828 70.8202 13.932 71.2522 14.044C71.8122 14.188 72.2962 14.356 72.7042 14.548C73.1202 14.74 73.4362 14.996 73.6522 15.316C73.8762 15.628 73.9882 16.044 73.9882 16.564C73.9882 17.172 73.8402 17.664 73.5442 18.04C73.2562 18.408 72.8722 18.676 72.3922 18.844C71.9122 19.012 71.3922 19.096 70.8322 19.096C70.1922 19.096 69.5562 19 68.9242 18.808C68.3002 18.608 67.7442 18.336 67.2562 17.992L67.9882 16.564C68.0602 16.636 68.1882 16.732 68.3722 16.852C68.5562 16.964 68.7802 17.08 69.0442 17.2C69.3082 17.312 69.5962 17.408 69.9082 17.488C70.2202 17.568 70.5362 17.608 70.8562 17.608C71.7682 17.608 72.2242 17.316 72.2242 16.732C72.2242 16.484 72.1322 16.284 71.9482 16.132C71.7642 15.98 71.5042 15.852 71.1682 15.748C70.8402 15.644 70.4562 15.528 70.0162 15.4C69.4722 15.248 69.0202 15.08 68.6602 14.896C68.3082 14.704 68.0442 14.468 67.8682 14.188C67.6922 13.9 67.6042 13.536 67.6042 13.096C67.6042 12.512 67.7402 12.024 68.0122 11.632C68.2922 11.232 68.6682 10.932 69.1402 10.732C69.6122 10.524 70.1362 10.42 70.7122 10.42C71.3042 10.42 71.8562 10.516 72.3682 10.708C72.8802 10.9 73.3202 11.12 73.6882 11.368L72.9562 12.712Z" fill="white"/>
<path fill-rule="evenodd" clip-rule="evenodd" d="M13.1959 20.63C15.664 22.1964 19.3575 21.5614 21.9594 18.9594C24.8884 16.0305 25.325 11.7184 22.9347 9.32807C20.5443 6.93774 16.2322 7.37437 13.3033 10.3033C10.3744 13.2322 9.93774 17.5443 12.3281 19.9347C12.3733 19.9799 12.4193 20.0242 12.4659 20.0674L14.4449 17.6256L14.4449 14.9299L15.1037 16.9569L16.5249 15.3548L16.2475 13.5189L17.0354 14.6308L19.0759 12.3421L17.6414 14.9299L19.0759 15.3548L17.2617 15.7522L15.668 17.3749L18.1758 17.6256L15.1037 18.2888L13.1959 20.63Z" fill="white"/>
</svg>
