<svg width="98" height="30" viewBox="0 0 98 30" fill="none" xmlns="http://www.w3.org/2000/svg">
<rect width="98" height="30" rx="15" fill="#D78555"/>
<path d="M39.428 19.06C38.868 19.06 38.344 18.948 37.856 18.724C37.368 18.5 36.936 18.192 36.56 17.8C36.192 17.4 35.904 16.936 35.696 16.408C35.488 15.88 35.384 15.308 35.384 14.692C35.384 14.108 35.488 13.56 35.696 13.048C35.904 12.528 36.196 12.072 36.572 11.68C36.948 11.288 37.388 10.98 37.892 10.756C38.396 10.532 38.944 10.42 39.536 10.42C40.328 10.42 41.012 10.592 41.588 10.936C42.164 11.272 42.596 11.72 42.884 12.28L41.648 13.192C41.432 12.776 41.128 12.456 40.736 12.232C40.352 12 39.932 11.884 39.476 11.884C38.996 11.884 38.572 12.016 38.204 12.28C37.844 12.544 37.56 12.892 37.352 13.324C37.152 13.756 37.052 14.228 37.052 14.74C37.052 15.276 37.16 15.76 37.376 16.192C37.592 16.624 37.888 16.968 38.264 17.224C38.648 17.472 39.084 17.596 39.572 17.596C40.396 17.596 41.14 17.208 41.804 16.432V15.832H40.088V14.62H43.172V19H41.804V18.04C41.116 18.72 40.324 19.06 39.428 19.06ZM44.5833 19V10.48H48.3513C48.7433 10.48 49.1033 10.56 49.4313 10.72C49.7673 10.88 50.0553 11.096 50.2953 11.368C50.5433 11.64 50.7313 11.944 50.8593 12.28C50.9953 12.616 51.0633 12.96 51.0633 13.312C51.0633 13.856 50.9233 14.356 50.6433 14.812C50.3713 15.268 49.9993 15.596 49.5273 15.796L51.4713 19H49.6473L47.8953 16.144H46.2393V19H44.5833ZM46.2393 14.692H48.3153C48.6273 14.692 48.8833 14.56 49.0833 14.296C49.2913 14.024 49.3953 13.696 49.3953 13.312C49.3953 13.048 49.3393 12.812 49.2273 12.604C49.1153 12.396 48.9713 12.232 48.7953 12.112C48.6273 11.992 48.4433 11.932 48.2433 11.932H46.2393V14.692ZM56.1529 19.06C55.5289 19.06 54.9609 18.94 54.4489 18.7C53.9449 18.46 53.5089 18.136 53.1409 17.728C52.7809 17.312 52.5009 16.848 52.3009 16.336C52.1009 15.816 52.0009 15.284 52.0009 14.74C52.0009 14.172 52.1049 13.632 52.3129 13.12C52.5209 12.6 52.8129 12.14 53.1889 11.74C53.5649 11.332 54.0049 11.012 54.5089 10.78C55.0209 10.54 55.5809 10.42 56.1889 10.42C56.8049 10.42 57.3649 10.544 57.8689 10.792C58.3809 11.04 58.8169 11.372 59.1769 11.788C59.5449 12.204 59.8249 12.672 60.0169 13.192C60.2169 13.704 60.3169 14.228 60.3169 14.764C60.3169 15.324 60.2129 15.864 60.0049 16.384C59.7969 16.896 59.5049 17.356 59.1289 17.764C58.7609 18.164 58.3209 18.48 57.8089 18.712C57.3049 18.944 56.7529 19.06 56.1529 19.06ZM53.6809 14.74C53.6809 15.236 53.7769 15.7 53.9689 16.132C54.1689 16.564 54.4529 16.916 54.8209 17.188C55.1969 17.46 55.6449 17.596 56.1649 17.596C56.7009 17.596 57.1529 17.456 57.5209 17.176C57.8889 16.896 58.1689 16.536 58.3609 16.096C58.5529 15.656 58.6489 15.204 58.6489 14.74C58.6489 14.244 58.5489 13.78 58.3489 13.348C58.1489 12.916 57.8609 12.568 57.4849 12.304C57.1169 12.032 56.6769 11.896 56.1649 11.896C55.6289 11.896 55.1769 12.036 54.8089 12.316C54.4409 12.596 54.1609 12.956 53.9689 13.396C53.7769 13.828 53.6809 14.276 53.6809 14.74ZM65.1992 19.06C64.5192 19.06 63.9392 18.948 63.4592 18.724C62.9872 18.492 62.6032 18.176 62.3072 17.776C62.0192 17.376 61.8072 16.924 61.6712 16.42C61.5352 15.908 61.4672 15.376 61.4672 14.824V10.48H63.1232V14.824C63.1232 15.296 63.1872 15.744 63.3152 16.168C63.4432 16.592 63.6592 16.936 63.9632 17.2C64.2672 17.464 64.6752 17.596 65.1872 17.596C65.7152 17.596 66.1312 17.464 66.4352 17.2C66.7392 16.928 66.9552 16.58 67.0832 16.156C67.2112 15.732 67.2752 15.288 67.2752 14.824V10.48H68.9192V14.824C68.9192 15.408 68.8472 15.956 68.7032 16.468C68.5672 16.98 68.3472 17.432 68.0432 17.824C67.7472 18.208 67.3632 18.512 66.8912 18.736C66.4192 18.952 65.8552 19.06 65.1992 19.06ZM72.2432 13.528V19H70.5872V10.48H71.9072L76.3112 16.096V10.492H77.9672V19H76.5872L72.2432 13.528ZM79.7396 19V10.48H82.8356C83.7636 10.48 84.5396 10.672 85.1636 11.056C85.7876 11.432 86.2556 11.944 86.5676 12.592C86.8796 13.232 87.0356 13.944 87.0356 14.728C87.0356 15.592 86.8636 16.344 86.5196 16.984C86.1756 17.624 85.6876 18.12 85.0556 18.472C84.4236 18.824 83.6836 19 82.8356 19H79.7396ZM85.3676 14.728C85.3676 14.176 85.2676 13.692 85.0676 13.276C84.8676 12.852 84.5796 12.524 84.2036 12.292C83.8276 12.052 83.3716 11.932 82.8356 11.932H81.3956V17.548H82.8356C83.3796 17.548 83.8396 17.428 84.2156 17.188C84.5916 16.94 84.8756 16.604 85.0676 16.18C85.2676 15.748 85.3676 15.264 85.3676 14.728Z" fill="white"/>
<path fill-rule="evenodd" clip-rule="evenodd" d="M13.3718 19.9572C13.3109 19.9572 13.2683 19.8969 13.2887 19.8395L17.0774 9.13402C17.1058 9.0537 17.1817 9 17.267 9H21.1255C21.211 9 21.2872 9.05413 21.3154 9.13491L24.9954 19.6898C25.041 19.8206 24.9439 19.9572 24.8055 19.9572H13.3718ZM10.2013 20C10.0609 20 9.96371 19.8598 10.013 19.7283L12.7513 12.4177C12.7807 12.3392 12.8558 12.2871 12.9396 12.2871H15.0324C15.1719 12.2871 15.269 12.4256 15.2215 12.5567L12.5736 19.8674C12.5448 19.947 12.4692 20 12.3845 20H10.2013Z" fill="white"/>
</svg>
