<svg width="66" height="30" viewBox="0 0 66 30" fill="none" xmlns="http://www.w3.org/2000/svg">
<rect width="66" height="30" rx="15" fill="#7ED4C9"/>
<path d="M37.888 19V10.48H39.544V19H37.888ZM40.8056 14.68C40.8056 14.16 40.8976 13.648 41.0816 13.144C41.2736 12.64 41.5496 12.184 41.9096 11.776C42.2696 11.368 42.7096 11.044 43.2296 10.804C43.7496 10.556 44.3416 10.432 45.0056 10.432C45.7816 10.432 46.4576 10.604 47.0336 10.948C47.6096 11.292 48.0376 11.74 48.3176 12.292L47.0456 13.168C46.9016 12.848 46.7136 12.596 46.4816 12.412C46.2496 12.228 45.9976 12.096 45.7256 12.016C45.4616 11.936 45.2056 11.896 44.9576 11.896C44.5416 11.896 44.1776 11.98 43.8656 12.148C43.5616 12.316 43.3056 12.536 43.0976 12.808C42.8896 13.08 42.7336 13.384 42.6296 13.72C42.5336 14.056 42.4856 14.392 42.4856 14.728C42.4856 15.232 42.5896 15.704 42.7976 16.144C43.0056 16.576 43.2976 16.928 43.6736 17.2C44.0496 17.472 44.4856 17.608 44.9816 17.608C45.2376 17.608 45.5016 17.564 45.7736 17.476C46.0536 17.388 46.3096 17.248 46.5416 17.056C46.7736 16.864 46.9536 16.616 47.0816 16.312L48.4376 17.092C48.2616 17.516 47.9856 17.876 47.6096 18.172C47.2336 18.46 46.8096 18.684 46.3376 18.844C45.8656 18.996 45.3976 19.072 44.9336 19.072C44.3256 19.072 43.7696 18.948 43.2656 18.7C42.7696 18.444 42.3376 18.108 41.9696 17.692C41.6016 17.268 41.3136 16.796 41.1056 16.276C40.9056 15.748 40.8056 15.216 40.8056 14.68ZM55.4642 17.548V19H49.5482V10.48H55.3562V11.932H51.2042V13.984H54.7922V15.328H51.2042V17.548H55.4642Z" fill="white"/>
<path fill-rule="evenodd" clip-rule="evenodd" d="M22.5503 7.29183L22.6024 11.8695L18.6097 13.7862L18.5605 9.46399L22.5503 7.29183Z" fill="white"/>
<path fill-rule="evenodd" clip-rule="evenodd" d="M26.5528 14.5051L22.6003 16.7659L18.6454 14.5015L22.5982 12.4252L26.5528 14.5051Z" fill="white"/>
<path fill-rule="evenodd" clip-rule="evenodd" d="M17.9424 14.5051L13.9899 16.7659L10.035 14.5015L13.9878 12.4252L17.9424 14.5051Z" fill="white"/>
<path fill-rule="evenodd" clip-rule="evenodd" d="M13.9455 7.27305L18.0479 9.30483L17.943 13.7325L14.0696 11.8141L13.9455 7.27305Z" fill="white"/>
<path fill-rule="evenodd" clip-rule="evenodd" d="M22.662 21.6679L18.5595 19.6361L18.6644 15.2084L22.5379 17.1268L22.662 21.6679Z" fill="white"/>
<path fill-rule="evenodd" clip-rule="evenodd" d="M14.0872 21.7091L14.035 17.1314L18.0277 15.2147L18.077 19.5369L14.0872 21.7091Z" fill="white"/>
</svg>
