<svg width="96" height="30" viewBox="0 0 96 30" fill="none" xmlns="http://www.w3.org/2000/svg">
<rect width="96" height="30" rx="15" fill="#9A9DA1"/>
<path d="M36.544 13.528V19H34.888V10.48H36.208L40.612 16.096V10.492H42.268V19H40.888L36.544 13.528ZM47.6763 19.06C47.0523 19.06 46.4843 18.94 45.9723 18.7C45.4683 18.46 45.0323 18.136 44.6643 17.728C44.3043 17.312 44.0243 16.848 43.8243 16.336C43.6243 15.816 43.5243 15.284 43.5243 14.74C43.5243 14.172 43.6283 13.632 43.8363 13.12C44.0443 12.6 44.3363 12.14 44.7123 11.74C45.0883 11.332 45.5283 11.012 46.0323 10.78C46.5443 10.54 47.1043 10.42 47.7123 10.42C48.3283 10.42 48.8883 10.544 49.3923 10.792C49.9043 11.04 50.3403 11.372 50.7003 11.788C51.0683 12.204 51.3483 12.672 51.5403 13.192C51.7403 13.704 51.8403 14.228 51.8403 14.764C51.8403 15.324 51.7363 15.864 51.5283 16.384C51.3203 16.896 51.0283 17.356 50.6523 17.764C50.2843 18.164 49.8443 18.48 49.3323 18.712C48.8283 18.944 48.2763 19.06 47.6763 19.06ZM45.2043 14.74C45.2043 15.236 45.3003 15.7 45.4923 16.132C45.6923 16.564 45.9763 16.916 46.3443 17.188C46.7203 17.46 47.1683 17.596 47.6883 17.596C48.2243 17.596 48.6763 17.456 49.0443 17.176C49.4123 16.896 49.6923 16.536 49.8843 16.096C50.0763 15.656 50.1723 15.204 50.1723 14.74C50.1723 14.244 50.0723 13.78 49.8723 13.348C49.6723 12.916 49.3843 12.568 49.0083 12.304C48.6403 12.032 48.2003 11.896 47.6883 11.896C47.1523 11.896 46.7003 12.036 46.3323 12.316C45.9643 12.596 45.6843 12.956 45.4923 13.396C45.3003 13.828 45.2043 14.276 45.2043 14.74ZM53.1107 19V10.48H56.8787C57.2707 10.48 57.6307 10.56 57.9587 10.72C58.2947 10.88 58.5827 11.096 58.8227 11.368C59.0707 11.64 59.2587 11.944 59.3867 12.28C59.5227 12.616 59.5907 12.96 59.5907 13.312C59.5907 13.856 59.4507 14.356 59.1707 14.812C58.8987 15.268 58.5267 15.596 58.0547 15.796L59.9987 19H58.1747L56.4227 16.144H54.7667V19H53.1107ZM54.7667 14.692H56.8427C57.1547 14.692 57.4107 14.56 57.6107 14.296C57.8187 14.024 57.9227 13.696 57.9227 13.312C57.9227 13.048 57.8667 12.812 57.7547 12.604C57.6427 12.396 57.4987 12.232 57.3227 12.112C57.1547 11.992 56.9707 11.932 56.7707 11.932H54.7667V14.692ZM68.0391 19V13.408L65.8551 17.572H64.9311L62.7471 13.408V19H61.0911V10.48H62.8671L65.3871 15.328L67.9311 10.48H69.6951V19H68.0391ZM73.7899 10.48H75.4699L78.6019 19H76.8979L76.1059 16.876H73.1299L72.3499 19H70.6459L73.7899 10.48ZM75.8059 15.712L74.6299 12.196L73.4059 15.712H75.8059ZM79.5364 19V10.48H81.1924V17.548H85.5364V19H79.5364Z" fill="white"/>
<path fill-rule="evenodd" clip-rule="evenodd" d="M17 22C20.866 22 24 18.866 24 15C24 11.134 20.866 8 17 8C13.134 8 10 11.134 10 15C10 18.866 13.134 22 17 22ZM17 19C19.2091 19 21 17.2091 21 15C21 12.7909 19.2091 11 17 11C14.7909 11 13 12.7909 13 15C13 17.2091 14.7909 19 17 19Z" fill="white"/>
</svg>
