<svg width="91" height="30" viewBox="0 0 91 30" fill="none" xmlns="http://www.w3.org/2000/svg">
<rect width="91" height="30" rx="15" fill="#B563CE"/>
<path d="M35.888 19V10.48H39.5C39.892 10.48 40.252 10.56 40.58 10.72C40.916 10.88 41.204 11.096 41.444 11.368C41.684 11.64 41.872 11.944 42.008 12.28C42.144 12.616 42.212 12.96 42.212 13.312C42.212 13.792 42.1 14.248 41.876 14.68C41.652 15.112 41.34 15.464 40.94 15.736C40.548 16.008 40.088 16.144 39.56 16.144H37.544V19H35.888ZM37.544 14.692H39.464C39.768 14.692 40.02 14.568 40.22 14.32C40.428 14.064 40.532 13.728 40.532 13.312C40.532 12.872 40.416 12.532 40.184 12.292C39.952 12.052 39.688 11.932 39.392 11.932H37.544V14.692ZM47.0006 19.06C46.3766 19.06 45.8086 18.94 45.2966 18.7C44.7926 18.46 44.3566 18.136 43.9886 17.728C43.6286 17.312 43.3486 16.848 43.1486 16.336C42.9486 15.816 42.8486 15.284 42.8486 14.74C42.8486 14.172 42.9526 13.632 43.1606 13.12C43.3686 12.6 43.6606 12.14 44.0366 11.74C44.4126 11.332 44.8526 11.012 45.3566 10.78C45.8686 10.54 46.4286 10.42 47.0366 10.42C47.6526 10.42 48.2126 10.544 48.7166 10.792C49.2286 11.04 49.6646 11.372 50.0246 11.788C50.3926 12.204 50.6726 12.672 50.8646 13.192C51.0646 13.704 51.1646 14.228 51.1646 14.764C51.1646 15.324 51.0606 15.864 50.8526 16.384C50.6446 16.896 50.3526 17.356 49.9766 17.764C49.6086 18.164 49.1686 18.48 48.6566 18.712C48.1526 18.944 47.6006 19.06 47.0006 19.06ZM44.5286 14.74C44.5286 15.236 44.6246 15.7 44.8166 16.132C45.0166 16.564 45.3006 16.916 45.6686 17.188C46.0446 17.46 46.4926 17.596 47.0126 17.596C47.5486 17.596 48.0006 17.456 48.3686 17.176C48.7366 16.896 49.0166 16.536 49.2086 16.096C49.4006 15.656 49.4966 15.204 49.4966 14.74C49.4966 14.244 49.3966 13.78 49.1966 13.348C48.9966 12.916 48.7086 12.568 48.3326 12.304C47.9646 12.032 47.5246 11.896 47.0126 11.896C46.4766 11.896 46.0246 12.036 45.6566 12.316C45.2886 12.596 45.0086 12.956 44.8166 13.396C44.6246 13.828 44.5286 14.276 44.5286 14.74ZM52.4349 19V10.48H54.0909V19H52.4349ZM60.9445 12.712C60.8725 12.632 60.7205 12.528 60.4885 12.4C60.2565 12.264 59.9765 12.144 59.6485 12.04C59.3285 11.928 58.9965 11.872 58.6525 11.872C57.7485 11.872 57.2965 12.192 57.2965 12.832C57.2965 13.064 57.3685 13.248 57.5125 13.384C57.6565 13.52 57.8725 13.636 58.1605 13.732C58.4485 13.828 58.8085 13.932 59.2405 14.044C59.8005 14.188 60.2845 14.356 60.6925 14.548C61.1085 14.74 61.4245 14.996 61.6405 15.316C61.8645 15.628 61.9765 16.044 61.9765 16.564C61.9765 17.172 61.8285 17.664 61.5325 18.04C61.2445 18.408 60.8605 18.676 60.3805 18.844C59.9005 19.012 59.3805 19.096 58.8205 19.096C58.1805 19.096 57.5445 19 56.9125 18.808C56.2885 18.608 55.7325 18.336 55.2445 17.992L55.9765 16.564C56.0485 16.636 56.1765 16.732 56.3605 16.852C56.5445 16.964 56.7685 17.08 57.0325 17.2C57.2965 17.312 57.5845 17.408 57.8965 17.488C58.2085 17.568 58.5245 17.608 58.8445 17.608C59.7565 17.608 60.2125 17.316 60.2125 16.732C60.2125 16.484 60.1205 16.284 59.9365 16.132C59.7525 15.98 59.4925 15.852 59.1565 15.748C58.8285 15.644 58.4445 15.528 58.0045 15.4C57.4605 15.248 57.0085 15.08 56.6485 14.896C56.2965 14.704 56.0325 14.468 55.8565 14.188C55.6805 13.9 55.5925 13.536 55.5925 13.096C55.5925 12.512 55.7285 12.024 56.0005 11.632C56.2805 11.232 56.6565 10.932 57.1285 10.732C57.6005 10.524 58.1245 10.42 58.7005 10.42C59.2925 10.42 59.8445 10.516 60.3565 10.708C60.8685 10.9 61.3085 11.12 61.6765 11.368L60.9445 12.712ZM66.8638 19.06C66.2398 19.06 65.6718 18.94 65.1598 18.7C64.6558 18.46 64.2198 18.136 63.8518 17.728C63.4918 17.312 63.2118 16.848 63.0118 16.336C62.8118 15.816 62.7118 15.284 62.7118 14.74C62.7118 14.172 62.8158 13.632 63.0238 13.12C63.2318 12.6 63.5238 12.14 63.8998 11.74C64.2758 11.332 64.7158 11.012 65.2198 10.78C65.7318 10.54 66.2918 10.42 66.8998 10.42C67.5158 10.42 68.0758 10.544 68.5798 10.792C69.0918 11.04 69.5278 11.372 69.8878 11.788C70.2558 12.204 70.5358 12.672 70.7278 13.192C70.9278 13.704 71.0278 14.228 71.0278 14.764C71.0278 15.324 70.9238 15.864 70.7158 16.384C70.5078 16.896 70.2158 17.356 69.8398 17.764C69.4718 18.164 69.0318 18.48 68.5198 18.712C68.0158 18.944 67.4638 19.06 66.8638 19.06ZM64.3918 14.74C64.3918 15.236 64.4878 15.7 64.6798 16.132C64.8798 16.564 65.1638 16.916 65.5318 17.188C65.9078 17.46 66.3558 17.596 66.8758 17.596C67.4118 17.596 67.8638 17.456 68.2318 17.176C68.5998 16.896 68.8798 16.536 69.0718 16.096C69.2638 15.656 69.3598 15.204 69.3598 14.74C69.3598 14.244 69.2598 13.78 69.0598 13.348C68.8598 12.916 68.5718 12.568 68.1958 12.304C67.8278 12.032 67.3878 11.896 66.8758 11.896C66.3398 11.896 65.8878 12.036 65.5198 12.316C65.1518 12.596 64.8718 12.956 64.6798 13.396C64.4878 13.828 64.3918 14.276 64.3918 14.74ZM73.9542 13.528V19H72.2982V10.48H73.6182L78.0222 16.096V10.492H79.6782V19H78.2982L73.9542 13.528Z" fill="white"/>
<path fill-rule="evenodd" clip-rule="evenodd" d="M14.1447 22C14.853 22 15.4742 21.4995 15.8224 20.7477C16.1706 21.4995 16.7917 22 17.5 22C18.1456 22 18.7189 21.5841 19.0789 20.9411C19.439 21.5841 20.0123 22 20.6579 22C21.7479 22 22.6316 20.8145 22.6316 19.3521C22.6316 19.064 22.5973 18.7866 22.5338 18.5268C24.0485 17.3156 25 15.5657 25 13.6196C25 9.96371 21.6421 7 17.5 7C13.3579 7 10 9.96371 10 13.6196C10 15.4955 10.884 17.189 12.3044 18.3936C12.2183 18.6908 12.1711 19.0141 12.1711 19.3521C12.1711 20.8145 13.0547 22 14.1447 22ZM17.4013 17.1117C19.8539 17.1117 21.8421 15.607 21.8421 13.7509C21.8421 11.8948 19.8539 10.3902 17.4013 10.3902C14.9487 10.3902 12.9605 11.8948 12.9605 13.7509C12.9605 15.607 14.9487 17.1117 17.4013 17.1117Z" fill="white"/>
</svg>
