<svg width="95" height="30" viewBox="0 0 95 30" fill="none" xmlns="http://www.w3.org/2000/svg">
<rect width="95" height="30" rx="15" fill="#F87C7A"/>
<path d="M34.888 19V10.48H38.5C38.892 10.48 39.252 10.56 39.58 10.72C39.916 10.88 40.204 11.096 40.444 11.368C40.684 11.64 40.872 11.944 41.008 12.28C41.144 12.616 41.212 12.96 41.212 13.312C41.212 13.792 41.1 14.248 40.876 14.68C40.652 15.112 40.34 15.464 39.94 15.736C39.548 16.008 39.088 16.144 38.56 16.144H36.544V19H34.888ZM36.544 14.692H38.464C38.768 14.692 39.02 14.568 39.22 14.32C39.428 14.064 39.532 13.728 39.532 13.312C39.532 12.872 39.416 12.532 39.184 12.292C38.952 12.052 38.688 11.932 38.392 11.932H36.544V14.692ZM47.4406 12.712C47.3686 12.632 47.2166 12.528 46.9846 12.4C46.7526 12.264 46.4726 12.144 46.1446 12.04C45.8246 11.928 45.4926 11.872 45.1486 11.872C44.2446 11.872 43.7926 12.192 43.7926 12.832C43.7926 13.064 43.8646 13.248 44.0086 13.384C44.1526 13.52 44.3686 13.636 44.6566 13.732C44.9446 13.828 45.3046 13.932 45.7366 14.044C46.2966 14.188 46.7806 14.356 47.1886 14.548C47.6046 14.74 47.9206 14.996 48.1366 15.316C48.3606 15.628 48.4726 16.044 48.4726 16.564C48.4726 17.172 48.3246 17.664 48.0286 18.04C47.7406 18.408 47.3566 18.676 46.8766 18.844C46.3966 19.012 45.8766 19.096 45.3166 19.096C44.6766 19.096 44.0406 19 43.4086 18.808C42.7846 18.608 42.2286 18.336 41.7406 17.992L42.4726 16.564C42.5446 16.636 42.6726 16.732 42.8566 16.852C43.0406 16.964 43.2646 17.08 43.5286 17.2C43.7926 17.312 44.0806 17.408 44.3926 17.488C44.7046 17.568 45.0206 17.608 45.3406 17.608C46.2526 17.608 46.7086 17.316 46.7086 16.732C46.7086 16.484 46.6166 16.284 46.4326 16.132C46.2486 15.98 45.9886 15.852 45.6526 15.748C45.3246 15.644 44.9406 15.528 44.5006 15.4C43.9566 15.248 43.5046 15.08 43.1446 14.896C42.7926 14.704 42.5286 14.468 42.3526 14.188C42.1766 13.9 42.0886 13.536 42.0886 13.096C42.0886 12.512 42.2246 12.024 42.4966 11.632C42.7766 11.232 43.1526 10.932 43.6246 10.732C44.0966 10.524 44.6206 10.42 45.1966 10.42C45.7886 10.42 46.3406 10.516 46.8526 10.708C47.3646 10.9 47.8046 11.12 48.1726 11.368L47.4406 12.712ZM50.4613 10.48L52.5613 14.488L54.6973 10.48H56.4853L53.3893 16.024V19H51.7453V16L48.6613 10.48H50.4613ZM56.3564 14.68C56.3564 14.16 56.4484 13.648 56.6324 13.144C56.8244 12.64 57.1004 12.184 57.4604 11.776C57.8204 11.368 58.2604 11.044 58.7804 10.804C59.3004 10.556 59.8924 10.432 60.5564 10.432C61.3324 10.432 62.0084 10.604 62.5844 10.948C63.1604 11.292 63.5884 11.74 63.8684 12.292L62.5964 13.168C62.4524 12.848 62.2644 12.596 62.0324 12.412C61.8004 12.228 61.5484 12.096 61.2764 12.016C61.0124 11.936 60.7564 11.896 60.5084 11.896C60.0924 11.896 59.7284 11.98 59.4164 12.148C59.1124 12.316 58.8564 12.536 58.6484 12.808C58.4404 13.08 58.2844 13.384 58.1804 13.72C58.0844 14.056 58.0364 14.392 58.0364 14.728C58.0364 15.232 58.1404 15.704 58.3484 16.144C58.5564 16.576 58.8484 16.928 59.2244 17.2C59.6004 17.472 60.0364 17.608 60.5324 17.608C60.7884 17.608 61.0524 17.564 61.3244 17.476C61.6044 17.388 61.8604 17.248 62.0924 17.056C62.3244 16.864 62.5044 16.616 62.6324 16.312L63.9884 17.092C63.8124 17.516 63.5364 17.876 63.1604 18.172C62.7844 18.46 62.3604 18.684 61.8884 18.844C61.4164 18.996 60.9484 19.072 60.4844 19.072C59.8764 19.072 59.3204 18.948 58.8164 18.7C58.3204 18.444 57.8884 18.108 57.5204 17.692C57.1524 17.268 56.8644 16.796 56.6564 16.276C56.4564 15.748 56.3564 15.216 56.3564 14.68ZM72.2629 10.48V19H70.6189V15.364H66.7549V19H65.0989V10.48H66.7549V13.924H70.6189V10.48H72.2629ZM74.0403 19V10.48H75.6963V19H74.0403ZM76.9579 14.68C76.9579 14.16 77.0499 13.648 77.2339 13.144C77.4259 12.64 77.7019 12.184 78.0619 11.776C78.4219 11.368 78.8619 11.044 79.3819 10.804C79.9019 10.556 80.4939 10.432 81.1579 10.432C81.9339 10.432 82.6099 10.604 83.1859 10.948C83.7619 11.292 84.1899 11.74 84.4699 12.292L83.1979 13.168C83.0539 12.848 82.8659 12.596 82.6339 12.412C82.4019 12.228 82.1499 12.096 81.8779 12.016C81.6139 11.936 81.3579 11.896 81.1099 11.896C80.6939 11.896 80.3299 11.98 80.0179 12.148C79.7139 12.316 79.4579 12.536 79.2499 12.808C79.0419 13.08 78.8859 13.384 78.7819 13.72C78.6859 14.056 78.6379 14.392 78.6379 14.728C78.6379 15.232 78.7419 15.704 78.9499 16.144C79.1579 16.576 79.4499 16.928 79.8259 17.2C80.2019 17.472 80.6379 17.608 81.1339 17.608C81.3899 17.608 81.6539 17.564 81.9259 17.476C82.2059 17.388 82.4619 17.248 82.6939 17.056C82.9259 16.864 83.1059 16.616 83.2339 16.312L84.5899 17.092C84.4139 17.516 84.1379 17.876 83.7619 18.172C83.3859 18.46 82.9619 18.684 82.4899 18.844C82.0179 18.996 81.5499 19.072 81.0859 19.072C80.4779 19.072 79.9219 18.948 79.4179 18.7C78.9219 18.444 78.4899 18.108 78.1219 17.692C77.7539 17.268 77.4659 16.796 77.2579 16.276C77.0579 15.748 76.9579 15.216 76.9579 14.68Z" fill="white"/>
<path fill-rule="evenodd" clip-rule="evenodd" d="M21.9745 19.6261C21.9745 19.6261 20.2092 21.042 16.6963 20.456C14.0311 20.0115 12.6096 17.0736 12.6096 15.4944C12.6096 11.7502 15.3808 10.8981 17.2543 10.8981C19.1278 10.8981 20.35 12.7247 20.35 14.1389C20.35 15.5531 19.3497 16.7901 17.7931 16.7901C16.2366 16.7901 15.7755 15.6973 15.7755 14.6926C15.7755 13.6879 16.5884 13.334 17.3297 13.334C18.071 13.334 18.3249 13.9669 18.3249 14.5108C18.3249 15.0548 17.9028 15.2496 17.5508 15.2496C17.1988 15.2496 17.1639 15.072 17.0292 14.8854C16.8945 14.6987 17.2011 13.9923 16.6963 13.9923C16.1915 13.9923 16.0974 14.8044 16.0974 14.8044C16.0974 14.8044 16.2815 16.3721 17.7931 16.3451C19.3048 16.318 20.022 15.1493 19.8136 13.9923C19.6052 12.8352 18.4822 11.6057 16.5115 11.8541C14.5407 12.1026 13.736 14.0939 14.0907 16.2219C14.4454 18.3499 16.9947 19.5829 18.9992 19.1393C21.0036 18.6957 23 17.2445 23 13.5653C23 9.88614 19.8136 7.67461 16.014 8.03908C12.2145 8.40355 9.85587 11.7254 10.0068 15.7166C10.1578 19.7078 13.945 21.8816 17.1475 21.9936C20.35 22.1057 22.3132 20.2518 22.3132 20.2518C22.3132 20.2518 22.7547 19.8581 22.5816 19.5506C22.4085 19.2432 21.9745 19.6261 21.9745 19.6261Z" fill="white"/>
</svg>
