<svg width="79" height="30" viewBox="0 0 79 30" fill="none" xmlns="http://www.w3.org/2000/svg">
<rect width="79" height="30" rx="15" fill="#CEC18C"/>
<path d="M35.888 19V10.48H39.656C40.048 10.48 40.408 10.56 40.736 10.72C41.072 10.88 41.36 11.096 41.6 11.368C41.848 11.64 42.036 11.944 42.164 12.28C42.3 12.616 42.368 12.96 42.368 13.312C42.368 13.856 42.228 14.356 41.948 14.812C41.676 15.268 41.304 15.596 40.832 15.796L42.776 19H40.952L39.2 16.144H37.544V19H35.888ZM37.544 14.692H39.62C39.932 14.692 40.188 14.56 40.388 14.296C40.596 14.024 40.7 13.696 40.7 13.312C40.7 13.048 40.644 12.812 40.532 12.604C40.42 12.396 40.276 12.232 40.1 12.112C39.932 11.992 39.748 11.932 39.548 11.932H37.544V14.692ZM47.4576 19.06C46.8336 19.06 46.2656 18.94 45.7536 18.7C45.2496 18.46 44.8136 18.136 44.4456 17.728C44.0856 17.312 43.8056 16.848 43.6056 16.336C43.4056 15.816 43.3056 15.284 43.3056 14.74C43.3056 14.172 43.4096 13.632 43.6176 13.12C43.8256 12.6 44.1176 12.14 44.4936 11.74C44.8696 11.332 45.3096 11.012 45.8136 10.78C46.3256 10.54 46.8856 10.42 47.4936 10.42C48.1096 10.42 48.6696 10.544 49.1736 10.792C49.6856 11.04 50.1216 11.372 50.4816 11.788C50.8496 12.204 51.1296 12.672 51.3216 13.192C51.5216 13.704 51.6216 14.228 51.6216 14.764C51.6216 15.324 51.5176 15.864 51.3096 16.384C51.1016 16.896 50.8096 17.356 50.4336 17.764C50.0656 18.164 49.6256 18.48 49.1136 18.712C48.6096 18.944 48.0576 19.06 47.4576 19.06ZM44.9856 14.74C44.9856 15.236 45.0816 15.7 45.2736 16.132C45.4736 16.564 45.7576 16.916 46.1256 17.188C46.5016 17.46 46.9496 17.596 47.4696 17.596C48.0056 17.596 48.4576 17.456 48.8256 17.176C49.1936 16.896 49.4736 16.536 49.6656 16.096C49.8576 15.656 49.9536 15.204 49.9536 14.74C49.9536 14.244 49.8536 13.78 49.6536 13.348C49.4536 12.916 49.1656 12.568 48.7896 12.304C48.4216 12.032 47.9816 11.896 47.4696 11.896C46.9336 11.896 46.4816 12.036 46.1136 12.316C45.7456 12.596 45.4656 12.956 45.2736 13.396C45.0816 13.828 44.9856 14.276 44.9856 14.74ZM52.3759 14.68C52.3759 14.16 52.4679 13.648 52.6519 13.144C52.8439 12.64 53.1199 12.184 53.4799 11.776C53.8399 11.368 54.2799 11.044 54.7999 10.804C55.3199 10.556 55.9119 10.432 56.5759 10.432C57.3519 10.432 58.0279 10.604 58.6039 10.948C59.1799 11.292 59.6079 11.74 59.8879 12.292L58.6159 13.168C58.4719 12.848 58.2839 12.596 58.0519 12.412C57.8199 12.228 57.5679 12.096 57.2959 12.016C57.0319 11.936 56.7759 11.896 56.5279 11.896C56.1119 11.896 55.7479 11.98 55.4359 12.148C55.1319 12.316 54.8759 12.536 54.6679 12.808C54.4599 13.08 54.3039 13.384 54.1999 13.72C54.1039 14.056 54.0559 14.392 54.0559 14.728C54.0559 15.232 54.1599 15.704 54.3679 16.144C54.5759 16.576 54.8679 16.928 55.2439 17.2C55.6199 17.472 56.0559 17.608 56.5519 17.608C56.8079 17.608 57.0719 17.564 57.3439 17.476C57.6239 17.388 57.8799 17.248 58.1119 17.056C58.3439 16.864 58.5239 16.616 58.6519 16.312L60.0079 17.092C59.8319 17.516 59.5559 17.876 59.1799 18.172C58.8039 18.46 58.3799 18.684 57.9079 18.844C57.4359 18.996 56.9679 19.072 56.5039 19.072C55.8959 19.072 55.3399 18.948 54.8359 18.7C54.3399 18.444 53.9079 18.108 53.5399 17.692C53.1719 17.268 52.8839 16.796 52.6759 16.276C52.4759 15.748 52.3759 15.216 52.3759 14.68ZM61.1185 19V10.492H62.7745V14.536L66.3505 10.48H68.1745L64.9105 14.26L68.3785 19H66.5065L63.8545 15.328L62.7745 16.456V19H61.1185Z" fill="white"/>
<path fill-rule="evenodd" clip-rule="evenodd" d="M21.8536 15.2658C21.8242 15.2258 21.8124 15.1757 21.8208 15.1268L22.674 10.1518C22.689 10.0641 22.7661 10 22.8551 10C22.9348 10 23.0062 10.0517 23.0302 10.1276L24.9618 16.2435C24.9848 16.3162 24.9601 16.3956 24.9 16.4425L23.661 17.4099C23.5799 17.4732 23.4624 17.457 23.4014 17.374L21.8536 15.2658ZM11 18.5214C11 18.6004 11.0508 18.6704 11.1259 18.695L13.9716 19.6254C14.0258 19.6432 14.0852 19.6345 14.1322 19.6021L20.818 14.9864C20.8596 14.9577 20.8874 14.913 20.8949 14.863L21.5847 10.2347C21.6011 10.1243 21.5156 10.0251 21.404 10.0251H15.6513C15.5969 10.0251 15.5454 10.0493 15.5107 10.0912L11.042 15.4819C11.0149 15.5147 11 15.5559 11 15.5985V18.5214ZM15.3271 19.907L18.5755 20.9712C18.6309 20.9893 18.6915 20.9799 18.7389 20.946L22.4951 18.2516C22.5753 18.1941 22.5953 18.0833 22.5402 18.0013L21.2482 16.0787C21.1916 15.9945 21.0772 15.9725 20.9935 16.0298L15.3271 19.907Z" fill="white"/>
</svg>
