<svg width="82" height="30" viewBox="0 0 82 30" fill="none" xmlns="http://www.w3.org/2000/svg">
<rect width="82" height="30" rx="15" fill="#5596A4"/>
<path d="M40.964 12.712C40.892 12.632 40.74 12.528 40.508 12.4C40.276 12.264 39.996 12.144 39.668 12.04C39.348 11.928 39.016 11.872 38.672 11.872C37.768 11.872 37.316 12.192 37.316 12.832C37.316 13.064 37.388 13.248 37.532 13.384C37.676 13.52 37.892 13.636 38.18 13.732C38.468 13.828 38.828 13.932 39.26 14.044C39.82 14.188 40.304 14.356 40.712 14.548C41.128 14.74 41.444 14.996 41.66 15.316C41.884 15.628 41.996 16.044 41.996 16.564C41.996 17.172 41.848 17.664 41.552 18.04C41.264 18.408 40.88 18.676 40.4 18.844C39.92 19.012 39.4 19.096 38.84 19.096C38.2 19.096 37.564 19 36.932 18.808C36.308 18.608 35.752 18.336 35.264 17.992L35.996 16.564C36.068 16.636 36.196 16.732 36.38 16.852C36.564 16.964 36.788 17.08 37.052 17.2C37.316 17.312 37.604 17.408 37.916 17.488C38.228 17.568 38.544 17.608 38.864 17.608C39.776 17.608 40.232 17.316 40.232 16.732C40.232 16.484 40.14 16.284 39.956 16.132C39.772 15.98 39.512 15.852 39.176 15.748C38.848 15.644 38.464 15.528 38.024 15.4C37.48 15.248 37.028 15.08 36.668 14.896C36.316 14.704 36.052 14.468 35.876 14.188C35.7 13.9 35.612 13.536 35.612 13.096C35.612 12.512 35.748 12.024 36.02 11.632C36.3 11.232 36.676 10.932 37.148 10.732C37.62 10.524 38.144 10.42 38.72 10.42C39.312 10.42 39.864 10.516 40.376 10.708C40.888 10.9 41.328 11.12 41.696 11.368L40.964 12.712ZM49.6194 11.932H46.8954V19H45.2514V11.932H42.5274V10.48H49.6194V11.932ZM56.5931 17.548V19H50.6771V10.48H56.4851V11.932H52.3331V13.984H55.9211V15.328H52.3331V17.548H56.5931ZM63.8001 17.548V19H57.8841V10.48H63.6921V11.932H59.5401V13.984H63.1281V15.328H59.5401V17.548H63.8001ZM65.0911 19V10.48H66.7471V17.548H71.0911V19H65.0911Z" fill="white"/>
<path fill-rule="evenodd" clip-rule="evenodd" d="M10.0511 14.6919C9.983 14.5756 9.98296 14.4317 10.051 14.3154L13.6395 8.18435C13.7063 8.07017 13.8287 8 13.961 8H21.0772C21.2101 8 21.333 8.07084 21.3996 8.18589L24.9487 14.3169C25.0155 14.4324 25.0155 14.5749 24.9486 14.6903L21.3996 20.8143C21.333 20.9292 21.2102 21 21.0773 21H13.9608C13.8286 21 13.7063 20.9299 13.6394 20.8158L10.0511 14.6919ZM17.5 18C19.433 18 21 16.433 21 14.5C21 12.567 19.433 11 17.5 11C15.567 11 14 12.567 14 14.5C14 16.433 15.567 18 17.5 18Z" fill="white"/>
</svg>
