<svg width="87" height="30" viewBox="0 0 87 30" fill="none" xmlns="http://www.w3.org/2000/svg">
<rect width="87" height="30" rx="15" fill="#559EDF"/>
<path fill-rule="evenodd" clip-rule="evenodd" d="M17 23.4232C19.7614 23.4232 22 19.9706 22 15.7116C22 11.4526 19.7614 8 17 8C14.2386 8 12 11.4526 12 15.7116C12 19.9706 14.2386 23.4232 17 23.4232ZM16.1665 21.8263C13.6293 21.2711 14.0634 18.4605 14.0634 18.4605C14.0634 18.4605 14.7563 20.1572 16.4376 20.7068C18.1189 21.2563 20.1507 20.4503 20.1507 20.4503C20.1507 20.4503 18.7037 22.3814 16.1665 21.8263Z" fill="white"/>
<path d="M38.804 10.504H40.34L41.312 13.324L42.296 10.504H43.82L42.356 14.38L43.436 17.092L45.848 10.48H47.648L44.24 19H42.812L41.312 15.424L39.824 19H38.396L35 10.48H36.776L39.2 17.092L40.256 14.38L38.804 10.504ZM50.1337 10.48H51.8137L54.9457 19H53.2417L52.4497 16.876H49.4737L48.6937 19H46.9897L50.1337 10.48ZM52.1497 15.712L50.9737 12.196L49.7497 15.712H52.1497ZM61.4553 11.932H58.7313V19H57.0873V11.932H54.3633V10.48H61.4553V11.932ZM68.429 17.548V19H62.513V10.48H68.321V11.932H64.169V13.984H67.757V15.328H64.169V17.548H68.429ZM69.72 19V10.48H73.488C73.88 10.48 74.24 10.56 74.568 10.72C74.904 10.88 75.192 11.096 75.432 11.368C75.68 11.64 75.868 11.944 75.996 12.28C76.132 12.616 76.2 12.96 76.2 13.312C76.2 13.856 76.06 14.356 75.78 14.812C75.508 15.268 75.136 15.596 74.664 15.796L76.608 19H74.784L73.032 16.144H71.376V19H69.72ZM71.376 14.692H73.452C73.764 14.692 74.02 14.56 74.22 14.296C74.428 14.024 74.532 13.696 74.532 13.312C74.532 13.048 74.476 12.812 74.364 12.604C74.252 12.396 74.108 12.232 73.932 12.112C73.764 11.992 73.58 11.932 73.38 11.932H71.376V14.692Z" fill="white"/>
</svg>
